<?xml version="1.0" ?><svg viewBox="0 0 64 64" xmlns="http://www.w3.org/2000/svg"><defs><style>.cls-1{fill:#a4a4ac;}.cls-2{fill:#1394f6;}.cls-3{fill:#fff;}</style></defs><title/><g data-name="filled outline" id="filled_outline"><rect class="cls-1" height="4" transform="translate(42.5 -21.5) rotate(90)" width="7" x="28.5" y="8.5"/><path class="cls-2" d="M32,60.71A23.71,23.71,0,1,1,55.71,37,23.73,23.73,0,0,1,32,60.71Z"/><circle class="cls-3" cx="32" cy="37" r="19"/><rect class="cls-3" height="12" transform="translate(37 -27) rotate(90)" width="4" x="30" y="-1"/><rect class="cls-3" height="3.66" transform="translate(5.21 42.58) rotate(-45)" width="3.66" x="52.17" y="13.17"/><path d="M32,17A20,20,0,1,0,52,37,20,20,0,0,0,32,17Zm9.84,35.05-1.75-3-1.74,1,1.76,3A17.91,17.91,0,0,1,33,55V51.44H31V55a17.91,17.91,0,0,1-7.11-1.9l1.76-3-1.74-1-1.75,3A18,18,0,0,1,17,46.84l3-1.75-1-1.74-3,1.76A17.91,17.91,0,0,1,14.05,38h3.51V36H14.05A17.91,17.91,0,0,1,16,28.89l3,1.76,1-1.74-3-1.75A18,18,0,0,1,22.16,22l1.75,3,1.74-1-1.76-3A17.91,17.91,0,0,1,31,19.05v3.51h2V19.05A17.91,17.91,0,0,1,40.11,21l-1.76,3,1.74,1,1.75-3a18,18,0,0,1,5.21,5.21l-3,1.75,1,1.74,3-1.76A17.91,17.91,0,0,1,50,36H46.44v2H50a17.91,17.91,0,0,1-1.9,7.11l-3-1.76-1,1.74,3,1.75A18,18,0,0,1,41.84,52.05ZM52.71,17.71,54,19l4-4-4-4-4,4,1.29,1.29-2.54,2.54A24.63,24.63,0,0,0,35,12.47V8h4V2H25V8h4v4.47a24.71,24.71,0,1,0,21.17,7.78ZM54,13.83,55.17,15,54,16.17,52.83,15ZM27,6V4H37V6H27Zm4,6.31V8h2v4.31h0l-1,0-1,0Zm1,47.4A22.71,22.71,0,1,1,54.71,37,22.74,22.74,0,0,1,32,59.71Zm1-25.53V26H31v8.18a3,3,0,1,0,2,0ZM32,38a1,1,0,1,1,1-1A1,1,0,0,1,32,38Z"/></g></svg>